<svg width="196" height="56" viewBox="0 0 196 56" fill="none" xmlns="http://www.w3.org/2000/svg">
<path d="M92.523 14.915V41H85.271V26.607L80.35 41H74.282L69.324 26.496V41H62.072V14.915H70.841L77.39 31.861L83.791 14.915H92.523ZM95.4671 30.603C95.4671 28.457 95.8494 26.5823 96.6141 24.979C97.4034 23.3757 98.4641 22.1423 99.7961 21.279C101.153 20.4157 102.657 19.984 104.31 19.984C105.741 19.984 106.974 20.2677 108.01 20.835C109.046 21.4023 109.848 22.167 110.415 23.129V20.243H117.667V41H110.415V38.114C109.848 39.076 109.034 39.8407 107.973 40.408C106.937 40.9753 105.716 41.259 104.31 41.259C102.657 41.259 101.153 40.8273 99.7961 39.964C98.4641 39.1007 97.4034 37.8673 96.6141 36.264C95.8494 34.636 95.4671 32.749 95.4671 30.603ZM110.415 30.603C110.415 29.271 110.045 28.2227 109.305 27.458C108.59 26.6933 107.702 26.311 106.641 26.311C105.556 26.311 104.655 26.6933 103.94 27.458C103.225 28.198 102.867 29.2463 102.867 30.603C102.867 31.935 103.225 32.9957 103.94 33.785C104.655 34.5497 105.556 34.932 106.641 34.932C107.702 34.932 108.59 34.5497 109.305 33.785C110.045 33.0203 110.415 31.9597 110.415 30.603ZM129.052 23.906C129.866 22.722 130.852 21.7847 132.012 21.094C133.171 20.4033 134.417 20.058 135.749 20.058V27.791H133.714C132.135 27.791 130.963 28.0993 130.199 28.716C129.434 29.3327 129.052 30.4057 129.052 31.935V41H121.8V20.243H129.052V23.906ZM142.011 18.319C140.729 18.319 139.693 17.9737 138.903 17.283C138.139 16.5677 137.756 15.6797 137.756 14.619C137.756 13.5337 138.139 12.6333 138.903 11.918C139.693 11.2027 140.729 10.845 142.011 10.845C143.269 10.845 144.281 11.2027 145.045 11.918C145.835 12.6333 146.229 13.5337 146.229 14.619C146.229 15.6797 145.835 16.5677 145.045 17.283C144.281 17.9737 143.269 18.319 142.011 18.319ZM145.6 20.243V41H138.348V20.243H145.6ZM148.546 30.603C148.546 28.457 148.99 26.5823 149.878 24.979C150.766 23.3757 152 22.1423 153.578 21.279C155.182 20.4157 157.007 19.984 159.054 19.984C161.694 19.984 163.914 20.7117 165.714 22.167C167.515 23.5977 168.674 25.608 169.192 28.198H161.496C161.052 26.8413 160.189 26.163 158.906 26.163C157.994 26.163 157.266 26.5453 156.723 27.31C156.205 28.05 155.946 29.1477 155.946 30.603C155.946 32.0583 156.205 33.1683 156.723 33.933C157.266 34.6977 157.994 35.08 158.906 35.08C160.214 35.08 161.077 34.4017 161.496 33.045H169.192C168.674 35.6103 167.515 37.6207 165.714 39.076C163.914 40.5313 161.694 41.259 159.054 41.259C157.007 41.259 155.182 40.8273 153.578 39.964C152 39.1007 150.766 37.8673 149.878 36.264C148.99 34.6607 148.546 32.7737 148.546 30.603ZM181.862 41.259C179.79 41.259 177.927 40.8273 176.275 39.964C174.647 39.1007 173.364 37.8673 172.427 36.264C171.489 34.6607 171.021 32.7737 171.021 30.603C171.021 28.457 171.489 26.5823 172.427 24.979C173.389 23.3757 174.684 22.1423 176.312 21.279C177.964 20.4157 179.827 19.984 181.899 19.984C183.971 19.984 185.821 20.4157 187.449 21.279C189.101 22.1423 190.396 23.3757 191.334 24.979C192.296 26.5823 192.777 28.457 192.777 30.603C192.777 32.749 192.296 34.636 191.334 36.264C190.396 37.8673 189.101 39.1007 187.449 39.964C185.796 40.8273 183.934 41.259 181.862 41.259ZM181.862 34.969C182.873 34.969 183.712 34.599 184.378 33.859C185.068 33.0943 185.414 32.009 185.414 30.603C185.414 29.197 185.068 28.124 184.378 27.384C183.712 26.644 182.885 26.274 181.899 26.274C180.912 26.274 180.086 26.644 179.42 27.384C178.754 28.124 178.421 29.197 178.421 30.603C178.421 32.0337 178.741 33.119 179.383 33.859C180.024 34.599 180.85 34.969 181.862 34.969Z" fill="white"/>
<path fill-rule="evenodd" clip-rule="evenodd" d="M0 27.0481V45.8481H16.424V43.1881L0 27.0481Z" fill="#326CF9"/>
<path fill-rule="evenodd" clip-rule="evenodd" d="M28.691 45.852H45.1131V27.052L28.6951 43.193L28.691 45.852Z" fill="#326CF9"/>
<path fill-rule="evenodd" clip-rule="evenodd" d="M45.115 3.844L22.605 25.971L0 3.75V22.87L22.605 45.091L45.111 22.968L45.115 3.844Z" fill="#326CF9"/>
</svg>
