<svg width="136" height="56" viewBox="0 0 136 56" fill="none" xmlns="http://www.w3.org/2000/svg">
<path d="M32.523 14.915V41H25.271V26.607L20.35 41H14.282L9.324 26.496V41H2.072V14.915H10.841L17.39 31.861L23.791 14.915H32.523ZM35.4671 30.603C35.4671 28.457 35.8494 26.5823 36.6141 24.979C37.4034 23.3757 38.4641 22.1423 39.7961 21.279C41.1528 20.4157 42.6574 19.984 44.3101 19.984C45.7408 19.984 46.9741 20.2677 48.0101 20.835C49.0461 21.4023 49.8478 22.167 50.4151 23.129V20.243H57.6671V41H50.4151V38.114C49.8478 39.076 49.0338 39.8407 47.9731 40.408C46.9371 40.9753 45.7161 41.259 44.3101 41.259C42.6574 41.259 41.1528 40.8273 39.7961 39.964C38.4641 39.1007 37.4034 37.8673 36.6141 36.264C35.8494 34.636 35.4671 32.749 35.4671 30.603ZM50.4151 30.603C50.4151 29.271 50.0451 28.2227 49.3051 27.458C48.5898 26.6933 47.7018 26.311 46.6411 26.311C45.5558 26.311 44.6554 26.6933 43.9401 27.458C43.2248 28.198 42.8671 29.2463 42.8671 30.603C42.8671 31.935 43.2248 32.9957 43.9401 33.785C44.6554 34.5497 45.5558 34.932 46.6411 34.932C47.7018 34.932 48.5898 34.5497 49.3051 33.785C50.0451 33.0203 50.4151 31.9597 50.4151 30.603ZM69.0515 23.906C69.8655 22.722 70.8522 21.7847 72.0115 21.094C73.1709 20.4033 74.4165 20.058 75.7485 20.058V27.791H73.7135C72.1349 27.791 70.9632 28.0993 70.1985 28.716C69.4339 29.3327 69.0515 30.4057 69.0515 31.935V41H61.7995V20.243H69.0515V23.906ZM82.0114 18.319C80.7287 18.319 79.6927 17.9737 78.9034 17.283C78.1387 16.5677 77.7564 15.6797 77.7564 14.619C77.7564 13.5337 78.1387 12.6333 78.9034 11.918C79.6927 11.2027 80.7287 10.845 82.0114 10.845C83.2694 10.845 84.2807 11.2027 85.0454 11.918C85.8347 12.6333 86.2294 13.5337 86.2294 14.619C86.2294 15.6797 85.8347 16.5677 85.0454 17.283C84.2807 17.9737 83.2694 18.319 82.0114 18.319ZM85.6004 20.243V41H78.3484V20.243H85.6004ZM88.5462 30.603C88.5462 28.457 88.9902 26.5823 89.8782 24.979C90.7662 23.3757 91.9995 22.1423 93.5782 21.279C95.1815 20.4157 97.0069 19.984 99.0542 19.984C101.694 19.984 103.914 20.7117 105.714 22.167C107.515 23.5977 108.674 25.608 109.192 28.198H101.496C101.052 26.8413 100.189 26.163 98.9062 26.163C97.9935 26.163 97.2659 26.5453 96.7232 27.31C96.2052 28.05 95.9462 29.1477 95.9462 30.603C95.9462 32.0583 96.2052 33.1683 96.7232 33.933C97.2659 34.6977 97.9935 35.08 98.9062 35.08C100.214 35.08 101.077 34.4017 101.496 33.045H109.192C108.674 35.6103 107.515 37.6207 105.714 39.076C103.914 40.5313 101.694 41.259 99.0542 41.259C97.0069 41.259 95.1815 40.8273 93.5782 39.964C91.9995 39.1007 90.7662 37.8673 89.8782 36.264C88.9902 34.6607 88.5462 32.7737 88.5462 30.603ZM121.862 41.259C119.79 41.259 117.927 40.8273 116.275 39.964C114.647 39.1007 113.364 37.8673 112.427 36.264C111.489 34.6607 111.021 32.7737 111.021 30.603C111.021 28.457 111.489 26.5823 112.427 24.979C113.389 23.3757 114.684 22.1423 116.312 21.279C117.964 20.4157 119.827 19.984 121.899 19.984C123.971 19.984 125.821 20.4157 127.449 21.279C129.101 22.1423 130.396 23.3757 131.334 24.979C132.296 26.5823 132.777 28.457 132.777 30.603C132.777 32.749 132.296 34.636 131.334 36.264C130.396 37.8673 129.101 39.1007 127.449 39.964C125.796 40.8273 123.934 41.259 121.862 41.259ZM121.862 34.969C122.873 34.969 123.712 34.599 124.378 33.859C125.068 33.0943 125.414 32.009 125.414 30.603C125.414 29.197 125.068 28.124 124.378 27.384C123.712 26.644 122.885 26.274 121.899 26.274C120.912 26.274 120.086 26.644 119.42 27.384C118.754 28.124 118.421 29.197 118.421 30.603C118.421 32.0337 118.741 33.119 119.383 33.859C120.024 34.599 120.85 34.969 121.862 34.969Z" fill="white"/>
</svg>
